<svg width="120" height="33" viewBox="0 0 120 33" fill="none" xmlns="http://www.w3.org/2000/svg">
<g filter="url(#filter0_d_28_8)">
<path d="M40.1304 15.376H46.9624V22H44.1464L43.8104 19.168C43.4904 20.1813 42.9198 20.9333 42.0984 21.424C41.2771 21.9147 40.2744 22.16 39.0904 22.16C38.0131 22.16 37.0531 21.92 36.2104 21.44C35.3784 20.96 34.7224 20.272 34.2424 19.376C33.7731 18.48 33.5384 17.4347 33.5384 16.24C33.5384 14.3307 34.1091 12.8213 35.2504 11.712C36.3918 10.6027 38.1678 10.048 40.5784 10.048C41.9544 10.048 43.1651 10.272 44.2104 10.72C45.2664 11.168 46.1624 11.8613 46.8984 12.8C46.4184 13.0453 45.4798 13.536 44.0824 14.272L43.6824 14.496C43.2664 14.08 42.7811 13.7707 42.2264 13.568C41.6718 13.3547 41.0851 13.248 40.4664 13.248C39.4424 13.248 38.6798 13.52 38.1784 14.064C37.6771 14.5973 37.4264 15.2587 37.4264 16.048C37.4264 16.9013 37.6931 17.5893 38.2264 18.112C38.7704 18.6347 39.5971 18.896 40.7064 18.896C41.1864 18.896 41.6504 18.8267 42.0984 18.688C42.5571 18.5493 42.9411 18.3093 43.2504 17.968H40.1304V15.376ZM62.4816 10.384L62.1776 10.848C61.0362 12.6187 60.0549 14.1867 59.2336 15.552C58.4229 16.9067 57.7456 18.1547 57.2016 19.296V22H53.0256V19.024C52.6309 18.224 52.1669 17.4027 51.6336 16.56C51.1002 15.7067 50.3429 14.5387 49.3616 13.056C48.5936 11.9253 48.0069 11.0347 47.6016 10.384H52.0816C52.4016 11.0347 52.9242 12 53.6496 13.28C54.3749 14.5813 54.8709 15.4987 55.1376 16.032C55.5109 15.2533 56.0122 14.2987 56.6416 13.168C57.3776 11.8453 57.8736 10.9173 58.1296 10.384H62.4816ZM78.2953 10.384L79.5433 22H75.3993L75.1433 13.712L73.5433 22H69.3513L67.7193 13.776L67.4793 22H63.3353L64.5833 10.384H70.0233L71.4153 17.952L72.6313 10.384H78.2953ZM87.0992 15.376H93.9312V22H91.1152L90.7792 19.168C90.4592 20.1813 89.8885 20.9333 89.0672 21.424C88.2459 21.9147 87.2432 22.16 86.0592 22.16C84.9819 22.16 84.0219 21.92 83.1792 21.44C82.3472 20.96 81.6912 20.272 81.2112 19.376C80.7419 18.48 80.5072 17.4347 80.5072 16.24C80.5072 14.3307 81.0779 12.8213 82.2192 11.712C83.3605 10.6027 85.1365 10.048 87.5472 10.048C88.9232 10.048 90.1339 10.272 91.1792 10.72C92.2352 11.168 93.1312 11.8613 93.8672 12.8C93.3872 13.0453 92.4485 13.536 91.0512 14.272L90.6512 14.496C90.2352 14.08 89.7499 13.7707 89.1952 13.568C88.6405 13.3547 88.0539 13.248 87.4352 13.248C86.4112 13.248 85.6485 13.52 85.1472 14.064C84.6459 14.5973 84.3952 15.2587 84.3952 16.048C84.3952 16.9013 84.6619 17.5893 85.1952 18.112C85.7392 18.6347 86.5659 18.896 87.6752 18.896C88.1552 18.896 88.6192 18.8267 89.0672 18.688C89.5259 18.5493 89.9099 18.3093 90.2192 17.968H87.0992V15.376ZM102.33 22.16C99.8876 22.16 98.0903 21.632 96.9383 20.576C95.7863 19.5093 95.2103 18.016 95.2103 16.096C95.2103 14.1973 95.781 12.7147 96.9223 11.648C98.0743 10.5813 99.877 10.048 102.33 10.048C104.794 10.048 106.597 10.5813 107.738 11.648C108.89 12.7147 109.466 14.1973 109.466 16.096C109.466 18.0267 108.896 19.52 107.754 20.576C106.613 21.632 104.805 22.16 102.33 22.16ZM102.33 18.896C103.514 18.896 104.368 18.672 104.89 18.224C105.413 17.7653 105.674 17.056 105.674 16.096C105.674 15.1573 105.413 14.4587 104.89 14C104.368 13.5413 103.514 13.312 102.33 13.312C101.157 13.312 100.309 13.5413 99.7863 14C99.2636 14.4587 99.0023 15.1573 99.0023 16.096C99.0023 17.0453 99.2636 17.7493 99.7863 18.208C100.309 18.6667 101.157 18.896 102.33 18.896Z" fill="white"/>
</g>
<line x1="28.4999" y1="4" x2="28.4999" y2="28" stroke="white" stroke-width="3"/>
<g filter="url(#filter1_f_28_8)">
<ellipse cx="14.8108" cy="15.8481" rx="9.81081" ry="8.50633" fill="white"/>
</g>
<ellipse cx="14.6621" cy="15.6962" rx="7.87838" ry="6.53165" fill="#A8F207"/>
<defs>
<filter id="filter0_d_28_8" x="29.5385" y="10.048" width="83.9279" height="20.112" filterUnits="userSpaceOnUse" color-interpolation-filters="sRGB">
<feFlood flood-opacity="0" result="BackgroundImageFix"/>
<feColorMatrix in="SourceAlpha" type="matrix" values="0 0 0 0 0 0 0 0 0 0 0 0 0 0 0 0 0 0 127 0" result="hardAlpha"/>
<feOffset dy="4"/>
<feGaussianBlur stdDeviation="2"/>
<feComposite in2="hardAlpha" operator="out"/>
<feColorMatrix type="matrix" values="0 0 0 0 0.9875 0 0 0 0 0.971042 0 0 0 0 0.971042 0 0 0 0.25 0"/>
<feBlend mode="normal" in2="BackgroundImageFix" result="effect1_dropShadow_28_8"/>
<feBlend mode="normal" in="SourceGraphic" in2="effect1_dropShadow_28_8" result="shape"/>
</filter>
<filter id="filter1_f_28_8" x="1" y="3.34177" width="27.6216" height="25.0127" filterUnits="userSpaceOnUse" color-interpolation-filters="sRGB">
<feFlood flood-opacity="0" result="BackgroundImageFix"/>
<feBlend mode="normal" in="SourceGraphic" in2="BackgroundImageFix" result="shape"/>
<feGaussianBlur stdDeviation="2" result="effect1_foregroundBlur_28_8"/>
</filter>
</defs>
</svg>
